#!OML:ASF F:\VICON\USERDATA\INSTALL\rory3\rory3.ASF
:FULLY-SPECIFIED
:DEGREES
140
root -0.09467074051016972 17.892770712257867 53.06422746068138 -1.5492605202844665 -4.3354252859499205 -4.473332499594
lfemur -17.84355639559303 -2.22088164802338 -17.428428131487575
ltibia 23.166262914630288
lfoot 4.495543450153106 -5.325413504507873
ltoes 0.1310763843445253
rfemur -9.039466392728759 7.376810681673616 27.311661970594432
rtibia 29.472934638480154
rfoot -5.860415185731053 -1.2369148682920859
rtoes 8.013939070971134
lowerback 9.309789364082384 0.9606079831901504 3.4607285764859985
upperback 0.09625806158127166 1.8822263272840227 1.4021455298213545
thorax -5.081972908613049 0.8980763852979877 -1.3808129899208081
lowerneck -16.033735630810448 -2.6581707473931004 -3.312294454912549
upperneck 22.299899911348 -3.068360785788787 0.40576494849697453
head 9.545669065757428 -1.5949271665585643 0.6978354672693207
lclavicle 1.4553384209995929e-16 2.3587291915860213e-16
lhumerus -32.93030817662391 4.366647652918186 79.94687586680385
lradius 27.286993730467795
lwrist 6.564531993823928
lhand -30.14740944562479 19.14686501626029
lfingers 7.12502
lthumb -3.3518471423598992 49.08320713084867
rclavicle 1.461272909855379e-16 2.3635006069756847e-16
rhumerus -26.19092807347764 -19.09980825781723 -76.26307868053244
rradius 18.851939426008567
rwrist 10.143551180685765
rhand -18.262644506353585 22.84558814790635
rfingers 7.12502
rthumb 7.588109420698279 -7.733547808716255
141
root -0.08686282637266746 17.85579842973802 53.070231188170794 -1.4550760066459638 -4.403901595333686 -4.649097347671809
lfemur -18.47068268721979 -1.9964721772499088 -17.26466578326231
ltibia 23.488777644281058
lfoot 2.9322744690492746 -4.549363066651401
ltoes -0.7858784807879409
rfemur -8.595523544634919 7.443573796856773 27.53750472824381
rtibia 30.528221444597268
rfoot -5.112474006837461 -1.6164359538651771
rtoes 8.733288473396277
lowerback 9.35547899575349 1.0079873711021798 3.653902060744259
upperback 0.07907709160624202 1.9970873708194716 1.4020122761517049
thorax -5.1500484465459015 0.9463372522828144 -1.4830305612751742
lowerneck -16.03473528014525 -2.6552999724172697 -3.3157178189487246
upperneck 22.244807750448363 -3.0690180283994124 0.41858572751796624
head 9.528012022704704 -1.5939666052009058 0.6946657077592381
lclavicle 1.458125920206716e-16 2.36086627426997e-16
lhumerus -33.23390637667035 4.578060346255075 79.92366699327566
lradius 26.64942636908339
lwrist 6.3614975442690955
lhand -30.056365676681335 19.11966252792792
lfingers 7.12502
lthumb -3.3303973021002817 48.96963241783515
rclavicle 1.4560787148561434e-16 2.3595064670334116e-16
rhumerus -26.165310289801127 -19.084399670771035 -76.18889308392374
rradius 19.117658231115627
rwrist 9.594102007448358
rhand -18.328400529059206 22.803639986927365
rfingers 7.12502
rthumb 7.5684182273823195 -7.806011069285104
142
root -0.07551188573603712 17.8528853345368 53.10000212261875 -1.3511995723432697 -4.462152288296371 -4.570609382830289
lfemur -19.1050751836586 -1.9510372956064703 -17.315205420965768
ltibia 23.215413407924604
lfoot 2.2335005467581643 -3.3478930856783666
ltoes -1.174422826343513
rfemur -8.165414117083499 7.5369711051101485 27.491210763887477
rtibia 31.194361899035403
rfoot -4.200981338743019 -2.0355397974427643
rtoes 8.886225994226729
lowerback 9.340733289180314 1.061770196169383 3.587943898375202
upperback 0.07518706008314563 2.052392724541944 1.3796757791532424
thorax -5.186007887401657 0.9871569277789641 -1.4782545666225944
lowerneck -16.056191292257022 -2.6480976780537833 -3.2730292430570875
upperneck 22.25377141960551 -3.05445700583787 0.40341169939423427
head 9.543797504941907 -1.5870970462758263 0.6776205345911279
lclavicle 1.4514706097823625e-16 2.355752454430796e-16
lhumerus -33.31706992483625 4.573213221934461 79.94409548448819
lradius 26.16428132912258
lwrist 5.963788844356333
lhand -30.11386414845833 19.25851297497565
lfingers 7.12502
lthumb -3.378500053574551 48.92857840849703
rclavicle 1.4617586535406446e-16 2.363873835110304e-16
rhumerus -26.025765948932502 -18.883856347794882 -76.20592937571129
rradius 19.29996166107252
rwrist 9.182241765259924
rhand -18.385293884563993 22.86191095865796
rfingers 7.12502
rthumb 7.569195848627302 -7.720727160747514
143
root -0.06823519349363599 17.850116469958056 53.05178131367514 -1.2099573020041312 -4.389027758282485 -4.531961882260287
lfemur -19.6990902370301 -1.9909796382178326 -17.38611803451451
ltibia 23.098392499861482
lfoot 2.0038897267156104 -2.8878813959711414
ltoes -1.5820815861916602
rfemur -7.998726966217843 7.390102972954015 27.314184096758254
rtibia 31.972770027454533
rfoot -3.248951072926957 -2.494068799775883
rtoes 9.010281523873841
lowerback 9.25517640071259 1.0712262457423491 3.560925217543978
upperback 0.04930617355088533 2.03903948895481 1.3565833512858767
thorax -5.218198829973703 0.9837736334415444 -1.4627060732255863
lowerneck -16.077763829529548 -2.6464950183571765 -3.264200346221452
upperneck 22.238810310889598 -3.049938442049635 0.4151387609406646
head 9.544368754722443 -1.5841240679162225 0.6749833952629876
lclavicle 1.452851996719879e-16 2.3567997345186237e-16
lhumerus -33.32014707048305 4.6604934657500525 79.89957797187598
lradius 25.515848108603926
lwrist 5.419629285182493
lhand -29.81785123033795 19.582067695458907
lfingers 7.12502
lthumb -3.1254308941568407 49.15727177667595
rclavicle 1.4627746631812812e-16 2.3646550275109704e-16
rhumerus -25.963479467202472 -18.9699210394262 -76.11254530255097
rradius 19.286282904007592
rwrist 9.18466120180921
rhand -18.42221838710328 22.902644915294687
rfingers 7.12502
rthumb 7.567476694118755 -7.830058279011451
